<?xml version="1.0" standalone="no"?>
<!-- Creator: fig2dev Version 3.2.6a -->
<!-- CreationDate: 2019-01-06 21:33:13 -->
<!-- Magnification: 2.1 -->
<svg	xmlns="http://www.w3.org/2000/svg"
	xmlns:xlink="http://www.w3.org/1999/xlink"
	width="372pt" height="215pt"
	viewBox="5365 3900 2950 1704">
<g fill="none">
<!-- Line -->
<polyline points=" 5580,4590 5580,5580"
	stroke="#000000" stroke-width="8px"/>
<!-- Line -->
<polyline points=" 6210,4590 6210,5580"
	stroke="#000000" stroke-width="8px"/>
<!-- Line -->
<polyline points=" 6840,4590 6840,5580"
	stroke="#000000" stroke-width="8px"/>
<!-- Line -->
<polyline points=" 7470,4590 7470,5580"
	stroke="#000000" stroke-width="8px"/>
<!-- Line -->
<polyline points=" 8100,4590 8100,5580"
	stroke="#000000" stroke-width="8px"/>
<!-- Arc -->
<path d="M 5805,5490 A 90 90 0 0 0 5985 5490"
	stroke="#000000" stroke-width="30px"/>
<!-- Circle -->
<circle cx="6210" cy="4860" r="191" fill="#ffffff"
	stroke="#000000" stroke-width="30px"/>
<!-- Line -->
<rect x="5760" y="5310" width="270" height="180"
	stroke="#000000" stroke-width="30px"/>
<!-- Line -->
<polyline points=" 5580,5400 5760,5400"
	stroke="#000000" stroke-width="30px"/>
<!-- Line -->
<polyline points=" 6030,5400 6210,5400"
	stroke="#000000" stroke-width="30px"/>
<!-- Line -->
<polyline points=" 5580,4860 6030,4860"
	stroke="#000000" stroke-width="30px"/>
<!-- Line -->
<polyline points=" 6390,4860 6840,4860"
	stroke="#000000" stroke-width="30px"/>
<!-- Line -->
<polyline points=" 6210,5130 6840,5130"
	stroke="#000000" stroke-width="30px"/>
<!-- Line -->
<polyline points=" 6840,5400 7290,5400"
	stroke="#000000" stroke-width="30px"/>
<!-- Line -->
<polyline points=" 5580,4140 5580,4590"
	stroke="#000000" stroke-width="30px"/>
<!-- Line -->
<rect x="7290" y="5310" width="360" height="180" fill="#ffffff"
	stroke="#000000" stroke-width="30px"/>
<!-- Line -->
<polyline points=" 7650,5400 8100,5400"
	stroke="#000000" stroke-width="30px"/>
<!-- Line -->
<polyline points=" 8100,4140 8100,4590"
	stroke="#000000" stroke-width="30px"/>
<!-- Text -->
<text xml:space="preserve" x="5580" y="4050" fill="#000000" font-family="Times" font-style="normal" font-weight="normal" font-size="144" text-anchor="middle">TXD</text>
<!-- Text -->
<text xml:space="preserve" x="8100" y="4050" fill="#000000" font-family="Times" font-style="normal" font-weight="normal" font-size="144" text-anchor="middle">3.3V</text>
<!-- Text -->
<text xml:space="preserve" x="6120" y="5355" fill="#000000" font-family="Times" font-style="normal" font-weight="normal" font-size="144" text-anchor="middle">+</text>
<!-- Text -->
<text xml:space="preserve" x="5670" y="5355" fill="#000000" font-family="Times" font-style="normal" font-weight="normal" font-size="144" text-anchor="middle">-</text>
<!-- Text -->
<text xml:space="preserve" x="6480" y="4770" fill="#000000" font-family="Times" font-style="normal" font-weight="normal" font-size="144" text-anchor="middle">+</text>
<!-- Text -->
<text xml:space="preserve" x="5940" y="4770" fill="#000000" font-family="Times" font-style="normal" font-weight="normal" font-size="144" text-anchor="middle">-</text>
</g>
</svg>
